<svg xmlns="http://www.w3.org/2000/svg" width="32" height="32" viewBox="0 0 32 32"><g transform="translate(2317.999 -961.068)"><path fill="none" stroke="#faa41a" stroke-linecap="round" stroke-linejoin="round" d="m 2304.9131,969.3291 a 1.25,1.25 0 0 1 -1.25,-1.23821 1.25,1.25 0 0 1 1.2264,-1.26157" transform="scale(-1 1)"/><path fill="none" stroke="#faa41a" stroke-linecap="round" stroke-linejoin="round" d="m -2305.0205,971.81671 a 1.25,1.25 0 0 1 -1.25,-1.23821 1.25,1.25 0 0 1 1.2264,-1.26157"/><path fill="none" stroke="#faa41a" stroke-linecap="round" stroke-linejoin="round" d="M2304.9131 974.31671a1.25 1.25 0 0 1-1.25-1.23821 1.25 1.25 0 0 1 1.2264-1.26157M2299.9131 969.3291a1.25 1.25 0 0 1-1.25-1.23821 1.25 1.25 0 0 1 1.2264-1.26157" transform="scale(-1 1)"/><path fill="none" stroke="#faa41a" stroke-linecap="round" stroke-linejoin="round" d="m -2300.0205,971.81671 a 1.25,1.25 0 0 1 -1.25,-1.23821 1.25,1.25 0 0 1 1.2264,-1.26157"/><path fill="none" stroke="#faa41a" stroke-linecap="round" stroke-linejoin="round" d="M2299.9131 974.31671a1.25 1.25 0 0 1-1.25-1.23821 1.25 1.25 0 0 1 1.2264-1.26157M2309.5259 969.3291a1.25 1.25 0 0 1-1.25-1.23821 1.25 1.25 0 0 1 1.2264-1.26157" transform="scale(-1 1)"/><path fill="none" stroke="#faa41a" stroke-linecap="round" stroke-linejoin="round" d="m -2309.6331,971.81671 a 1.25,1.25 0 0 1 -1.2499,-1.23821 1.25,1.25 0 0 1 1.2264,-1.26157"/><path fill="none" stroke="#faa41a" stroke-linecap="round" stroke-linejoin="round" d="m 2309.5259,974.31671 a 1.25,1.25 0 0 1 -1.25,-1.23821 1.25,1.25 0 0 1 1.2264,-1.26157" transform="scale(-1 1)"/><path fill="#faa41a" stroke="#383747" stroke-linecap="round" stroke-linejoin="round" d="m -2288.0918,970.98886 c 0,1.2779 -0.8869,2.3139 -1.9809,2.3139 -1.094,0 -1.9808,-1.036 -1.9808,-2.3139 0,-1.278 0.8868,-3.2956 1.9808,-3.2956 1.094,0 1.9809,2.0176 1.9809,3.2956 z"/><path fill="none" stroke="#383747" stroke-linecap="round" stroke-linejoin="round" d="M-2309.0386 987.30696l8.9983 0 0-2.9756c-1.9176.8461-3.0344.9781-4.5881 1.0102-1.9432.04-3.2604-.2963-4.4102-.584zM-2290.0884 973.85506c-.94 2.9054-.6758 6.6136-.9786 9.9437 0 1.5324 1.9887 1.481 1.9887 0-.306-3.3072.172-6.5615-1.0101-9.9437z"/><path fill="#faa41a" stroke="#383747" stroke-linecap="round" stroke-linejoin="round" d="m -2293.1862,976.53286 c -1.6811,6.2738 -8.1298,9.9969 -14.4036,8.3159 -4.0584,-1.0875 -7.2284,-4.2575 -8.3158,-8.3159 z"/><path fill="none" stroke="#fff" stroke-linecap="round" stroke-linejoin="round" d="m -2296.5515,978.56566 c -0.7082,2.1593 -2.6032,3.6603 -4.8034,4.0679"/></g></svg>